Coordinates
version=1
nRows=11
nColumns=46
inDegrees=yes

Units are S.I. units (second, meters, Newtons, ...)
Angles are in degrees.

endheader
time	pelvis_tilt	pelvis_list	pelvis_rotation	pelvis_tx	pelvis_ty	pelvis_tz	bb_angle	bb_tx	bb_ty	bb_tz	hip_flexion_r	hip_adduction_r	hip_rotation_r	knee_angle_r	knee_angle_r_beta	ankle_angle_r	subtalar_angle_r	mtp_angle_r	crank_angle_r	hip_flexion_l	hip_adduction_l	hip_rotation_l	knee_angle_l	knee_angle_l_beta	ankle_angle_l	subtalar_angle_l	mtp_angle_l	crank_angle_l	lumbar_extension	lumbar_bending	lumbar_rotation	arm_flex_r	arm_add_r	arm_rot_r	elbow_flex_r	pro_sup_r	wrist_flex_r	wrist_dev_r	arm_flex_l	arm_add_l	arm_rot_l	elbow_flex_l	pro_sup_l	wrist_flex_l	wrist_dev_l
      5.00500000	    -16.88326356	      2.31346839	      6.59514110	      0.32515092	      1.13806508	     -0.27092506	      0.00000000	      0.50000000	      0.00000000	      0.25000000	     27.26345899	    -12.02400759	    -13.42400063	     34.78191583	      0.60705895	    -32.10728861	     -5.81292660	      0.00000000	      0.00000000	     80.98410798	      2.86785351	      2.63764047	    110.29434559	      1.92499948	      2.51389303	     -7.80539196	      0.00000000	      0.00000000	    -61.26674394	     -0.85218966	     -7.22647856	     55.88849381	    -17.23322717	     20.03997187	     60.68141510	     50.20890270	      0.00000000	      0.00000000	     61.12033036	    -18.97249496	     34.03972309	     68.00935238	     49.98266013	      0.00000000	      0.00000000
      5.01000000	    -16.94310670	      2.02095477	      6.63002884	      0.32451865	      1.13972120	     -0.27184957	      0.00000000	      0.50000000	      0.00000000	      0.25000000	     27.96830760	    -11.71347925	    -12.62734779	     36.33962457	      0.63424610	    -33.95530690	     -7.42510409	      0.00000000	      0.00000000	     80.49506239	      3.11576397	      2.90758384	    108.80125229	      1.89894008	      4.22685342	     -7.67342943	      0.00000000	      0.00000000	    -61.62470683	     -0.73987058	     -7.17336228	     56.10674670	    -17.05188977	     19.51866647	     60.83268449	     50.05385323	      0.00000000	      0.00000000	     61.21937824	    -18.96604283	     33.62652645	     68.67597057	     49.95937304	      0.00000000	      0.00000000
      5.01500000	    -17.05250547	      1.79367567	      6.63134072	      0.32377749	      1.14097623	     -0.27281064	      0.00000000	      0.50000000	      0.00000000	      0.25000000	     28.88661336	    -11.46485105	    -11.70413293	     38.20911529	      0.66687487	    -35.36453694	     -8.80458238	      0.00000000	      0.00000000	     79.91566516	      3.41823777	      3.18911496	    107.10821047	      1.86939093	      5.86390696	     -7.60263182	      0.00000000	      0.00000000	    -61.90611224	     -0.68763701	     -7.18045025	     56.30921836	    -16.92929342	     19.01369710	     61.00303578	     49.80554925	      0.00000000	      0.00000000	     61.25660042	    -18.90329637	     33.16003589	     69.34259686	     49.85031917	      0.00000000	      0.00000000
      5.02000000	    -17.19903059	      2.00262414	      6.70733569	      0.32309189	      1.14336125	     -0.27308549	      0.00000000	      0.50000000	      0.00000000	      0.25000000	     29.79727129	    -11.53851634	    -10.53781462	     39.99510655	      0.69804629	    -36.67568890	    -10.21844900	      0.00000000	      0.00000000	     78.23467880	      3.65203358	      1.36422849	    104.03869295	      1.81581774	      7.00125309	    -12.85518621	      0.00000000	      0.00000000	    -62.34062264	     -0.91964062	     -7.51110542	     56.69854855	    -16.84054297	     18.86617039	     60.81432681	     49.77627877	      0.00000000	      0.00000000	     61.76836120	    -19.06717153	     33.28576314	     69.75382511	     49.92192177	      0.00000000	      0.00000000
      5.02500000	    -17.28395158	      1.75369739	      6.65745693	      0.32253603	      1.14385547	     -0.27424290	      0.00000000	      0.50000000	      0.00000000	      0.25000000	     30.85283267	    -11.25382848	     -9.57997643	     42.28604008	      0.73803063	    -37.30186323	    -11.09546217	      0.00000000	      0.00000000	     77.65339637	      3.96484982	      2.01475864	    102.33331432	      1.78605327	      8.23287921	    -12.15354696	      0.00000000	      0.00000000	    -62.50450490	     -0.81823932	     -7.50624525	     56.96816619	    -16.69505064	     18.68482722	     60.71644737	     49.76297826	      0.00000000	      0.00000000	     61.87015681	    -19.30556540	     33.33680444	     70.19089561	     49.99542945	      0.00000000	      0.00000000
      5.03000000	    -17.30098945	      1.54934692	      6.57185122	      0.32201428	      1.14464051	     -0.27495255	      0.00000000	      0.50000000	      0.00000000	      0.25000000	     31.84534017	    -10.87572133	     -8.49753847	     44.60023655	      0.77842097	    -37.70248415	    -12.03743532	      0.00000000	      0.00000000	     76.63768318	      4.10573633	      2.17098684	    100.13000799	      1.74759832	      9.29724867	    -12.60570533	      0.00000000	      0.00000000	    -62.79662542	     -0.79228785	     -7.40528738	     57.29037395	    -16.70956917	     18.50720419	     60.71237015	     49.75322765	      0.00000000	      0.00000000	     62.04958176	    -19.35387846	     33.23042043	     70.56558022	     50.04149345	      0.00000000	      0.00000000
      5.03500000	    -17.33381458	      1.34008770	      6.42693500	      0.32162475	      1.14506597	     -0.27562060	      0.00000000	      0.50000000	      0.00000000	      0.25000000	     32.91839006	    -10.46429534	     -7.41857934	     47.04652499	      0.82111676	    -37.97442334	    -12.90013591	      0.00000000	      0.00000000	     75.70409672	      4.19790534	      2.51559226	     98.01289552	      1.71064774	     10.08107125	    -12.65163808	      0.00000000	      0.00000000	    -63.02587307	     -0.81106270	     -7.28784526	     57.48706033	    -16.70079535	     18.35974353	     60.75446932	     49.75431997	      0.00000000	      0.00000000	     62.13335247	    -19.40634030	     33.09645777	     70.93753905	     50.08576838	      0.00000000	      0.00000000
      5.04000000	    -17.64685075	      1.20078951	      6.08477080	      0.32132162	      1.14475036	     -0.27596003	      0.00000000	      0.50000000	      0.00000000	      0.25000000	     34.43610022	    -10.01992297	     -6.17743282	     49.66530633	      0.86682312	    -38.19927385	    -13.80637335	      0.00000000	      0.00000000	     75.07838726	      4.10667061	      2.90891441	     95.96419369	      1.67489114	     10.80514269	    -12.00883792	      0.00000000	      0.00000000	    -62.91136999	     -1.07328609	     -7.24235991	     57.42679861	    -16.63011869	     18.16916328	     60.93280923	     49.79299360	      0.00000000	      0.00000000	     61.92347957	    -19.58851346	     32.83117354	     71.66693029	     50.17710595	      0.00000000	      0.00000000
      5.04500000	    -17.85489558	      0.94361329	      5.83733394	      0.32106105	      1.14441371	     -0.27643138	      0.00000000	      0.50000000	      0.00000000	      0.25000000	     35.79089975	     -9.49795724	     -5.15081155	     52.25714935	      0.91205931	    -38.33905450	    -14.35359820	      0.00000000	      0.00000000	     74.34058419	      4.06023308	      3.44604597	     93.88307026	      1.63856869	     11.22438428	    -11.53721577	      0.00000000	      0.00000000	    -62.86665246	     -1.10501157	     -7.06875903	     57.46300035	    -16.62512507	     18.04793871	     61.16646252	     49.84789272	      0.00000000	      0.00000000	     61.70310909	    -19.70852598	     32.48065924	     72.31904842	     50.24671269	      0.00000000	      0.00000000
      5.05000000	    -17.94027205	      0.67693278	      5.69757243	      0.32087178	      1.14420008	     -0.27708944	      0.00000000	      0.50000000	      0.00000000	      0.25000000	     36.96236399	     -9.04614787	     -4.38573760	     54.79882328	      0.95641989	    -38.29126837	    -15.07231753	      0.00000000	      0.00000000	     73.39069026	      4.09055944	      3.95316094	     91.68995856	      1.60029167	     11.30614893	    -11.33062461	      0.00000000	      0.00000000	    -62.95026129	     -1.01867139	     -6.84777669	     57.65108936	    -16.71770699	     17.98653615	     61.30770336	     49.87473140	      0.00000000	      0.00000000	     61.64529410	    -19.71761635	     32.26121416	     72.66816857	     50.28017235	      0.00000000	      0.00000000
      5.05500000	    -18.17059877	      0.58253765	      5.42319329	      0.32087237	      1.14387549	     -0.27742697	      0.00000000	      0.50000000	      0.00000000	      0.25000000	     38.32685851	     -8.68137730	     -3.49392636	     57.32195960	      1.00045693	    -38.34226274	    -15.71855534	      0.00000000	      0.00000000	     72.36740266	      4.01578475	      4.00509111	     89.20027835	      1.55683855	     11.14091573	    -12.03533210	      0.00000000	      0.00000000	    -62.84893752	     -1.16695032	     -6.77254010	     57.51470117	    -16.80563765	     18.01506705	     61.68077840	     49.96965127	      0.00000000	      0.00000000	     61.30542622	    -19.78431890	     31.83450596	     73.34539593	     50.34750915	      0.00000000	      0.00000000
